<svg width="24" height="24" viewBox="0 0 24 24" fill="none" xmlns="http://www.w3.org/2000/svg">
<path d="M9.12115 5.26631L8.71849 4.36033C8.45521 3.76796 8.32357 3.47176 8.1267 3.24509C7.87997 2.96102 7.55836 2.75202 7.19857 2.64193C6.91148 2.55408 6.58735 2.55408 5.9391 2.55408C4.9908 2.55408 4.51665 2.55408 4.11862 2.73637C3.64976 2.9511 3.22633 3.41736 3.05762 3.90468C2.9144 4.31837 2.95543 4.74351 3.03747 5.59378C3.9108 14.6442 8.87271 19.6061 17.9231 20.4795C18.7734 20.5615 19.1986 20.6025 19.6122 20.4593C20.0996 20.2906 20.5658 19.8672 20.7806 19.3983C20.9628 19.0003 20.9628 18.5261 20.9628 17.5778C20.9628 16.9296 20.9628 16.6055 20.875 16.3184C20.7649 15.9586 20.5559 15.637 20.2718 15.3902C20.0452 15.1934 19.749 15.0617 19.1566 14.7984L18.2506 14.3958C17.6091 14.1107 17.2883 13.9681 16.9624 13.9371C16.6504 13.9074 16.3359 13.9512 16.0439 14.0649C15.7388 14.1837 15.4692 14.4084 14.9298 14.8579C14.393 15.3052 14.1246 15.5289 13.7966 15.6487C13.5058 15.755 13.1214 15.7943 12.8152 15.7492C12.4697 15.6983 12.2052 15.5569 11.6761 15.2742C10.0301 14.3945 9.12242 13.4868 8.24276 11.8408C7.96003 11.3117 7.81867 11.0472 7.76776 10.7017C7.72263 10.3955 7.76197 10.0111 7.86819 9.72034C7.98801 9.39236 8.2117 9.12394 8.65908 8.58708C9.10851 8.04776 9.33323 7.7781 9.45204 7.47299C9.56574 7.18102 9.60951 6.86648 9.57984 6.55456C9.54883 6.2286 9.40627 5.90784 9.12115 5.26631Z" stroke="currentColor" stroke-width="1.5" stroke-linecap="round"/>
</svg>
