<svg width="24" height="24" viewBox="0 0 24 24" fill="none" xmlns="http://www.w3.org/2000/svg">
<g clip-path="url(#clip0_2006_339)">
<path d="M17.4718 14.382C17.1748 14.233 15.7138 13.515 15.4418 13.415C15.1688 13.316 14.9708 13.267 14.7718 13.565C14.5748 13.862 14.0048 14.531 13.8318 14.729C13.6588 14.928 13.4848 14.952 13.1878 14.804C12.8908 14.654 11.9328 14.341 10.7978 13.329C9.91484 12.541 9.31784 11.568 9.14484 11.27C8.97184 10.973 9.12684 10.812 9.27484 10.664C9.40884 10.531 9.57284 10.317 9.72084 10.144C9.86984 9.97002 9.91884 9.84602 10.0188 9.64702C10.1178 9.44902 10.0688 9.27602 9.99384 9.12702C9.91884 8.97802 9.32484 7.51502 9.07784 6.92002C8.83584 6.34102 8.59084 6.42002 8.40884 6.41002C8.23584 6.40202 8.03784 6.40002 7.83884 6.40002C7.64084 6.40002 7.31884 6.47402 7.04684 6.77202C6.77484 7.06902 6.00684 7.78802 6.00684 9.25102C6.00684 10.713 7.07184 12.126 7.21984 12.325C7.36884 12.523 9.31584 15.525 12.2968 16.812C13.0058 17.118 13.5588 17.301 13.9908 17.437C14.7028 17.664 15.3508 17.632 15.8618 17.555C16.4328 17.47 17.6198 16.836 17.8678 16.142C18.1158 15.448 18.1158 14.853 18.0408 14.729C17.9668 14.605 17.7698 14.531 17.4718 14.382Z" fill="currentColor"/>
<path d="M12 0C5.373 0 0 5.373 0 12C0 14.127 0.558 16.122 1.532 17.848L0.054 23.704C0.0272502 23.7909 0.0246887 23.8834 0.046591 23.9716C0.0684934 24.0598 0.114031 24.1404 0.178306 24.2047C0.242581 24.269 0.323162 24.3145 0.411383 24.3364C0.499604 24.3583 0.592126 24.3558 0.679 24.329L6.535 22.851C8.24039 23.6601 10.1132 24.0539 12 24C18.627 24 24 18.627 24 12C24 5.373 18.627 0 12 0ZM12 22C10.109 22 8.339 21.477 6.832 20.57L6.463 20.348L2.636 21.314L3.619 17.718L3.374 17.33C2.42407 15.7178 1.94786 13.8705 2 12C2 6.477 6.477 2 12 2C17.523 2 22 6.477 22 12C22 17.523 17.523 22 12 22Z" fill="currentColor"/>
</g>
<defs>
<clipPath id="clip0_2006_339">
<rect width="24" height="24" fill="white"/>
</clipPath>
</defs>
</svg>
