<svg width="512" height="512" viewBox="0 0 512 512" fill="none" xmlns="http://www.w3.org/2000/svg">
<rect width="512" height="512" fill="#F7F8FA"/>
<path d="M421.565 136.415C428.816 136.415 433.94 143.505 431.68 150.387L351.846 393.439C344.329 416.324 315.875 424.08 297.795 408.161L297.629 408.015L297.473 407.859L163.525 273.571L172.03 349.344L172.06 349.639C172.584 355.821 167.707 361.179 161.451 361.179H109.585C104.327 361.178 99.8871 357.345 99.0732 352.202L99.0059 351.7L80.002 179.497C76.6393 149.027 112.511 130.343 135.528 150.609L135.671 150.735L135.806 150.868L301.626 314.095L357.232 143.758L357.374 143.352C358.918 139.197 362.89 136.416 367.352 136.415H421.565Z" fill="black" stroke="white" stroke-width="13.6533" stroke-miterlimit="16"/>
</svg>
