<svg width="873" height="240" viewBox="0 0 873 240" fill="none" xmlns="http://www.w3.org/2000/svg">
<path d="M236.262 43.8621C237.786 43.8621 238.864 45.352 238.388 46.8L191.611 189.213C188.101 199.897 174.821 203.515 166.383 196.086L79.8152 109.299L86.075 165.071C86.2239 166.398 85.1863 167.559 83.8516 167.559H53.4622C52.3217 167.559 51.3636 166.701 51.2383 165.567L40.103 64.6661C38.5328 50.4382 55.2792 41.7245 66.0189 51.181L167.783 151.353L202.37 45.4057C202.67 44.485 203.529 43.8621 204.497 43.8621H236.262Z" fill="black"></path>
<path d="M762.373 158.647C759.571 161.529 754.686 159.545 754.686 155.525V138.393C754.686 137.23 755.138 136.112 755.948 135.277L803.487 86.2228C804.331 85.3525 805.491 84.8613 806.703 84.8613H831.494C832.109 84.8613 832.608 85.3603 832.608 85.9759C832.608 86.2661 832.495 86.5449 832.293 86.753L762.373 158.647ZM745.85 183.791C743.377 183.791 741.372 181.786 741.372 179.313V46.6952C741.372 44.4371 743.053 42.5323 745.294 42.2521L761.949 40.1689C762.741 40.0699 763.498 40.5273 763.778 41.2746C763.85 41.4681 763.887 41.673 763.887 41.8797V179.313C763.887 181.786 761.883 183.791 759.41 183.791H745.85ZM810.3 183.791C808.823 183.791 807.44 183.062 806.606 181.843L776.087 137.267C774.819 135.415 775.118 132.911 776.785 131.41L785.768 123.32C787.769 121.519 790.896 121.877 792.437 124.086L832.785 181.917C832.925 182.117 833 182.355 833 182.599C833 183.257 832.466 183.791 831.808 183.791H810.3Z" fill="black"></path>
<path d="M673.21 186.73C663.16 186.73 654.284 184.51 646.583 180.069C639.013 175.629 633.074 169.49 628.767 161.654C624.459 153.818 622.306 144.676 622.306 134.228C622.306 123.911 624.394 114.834 628.571 106.998C632.878 99.0315 638.752 92.8932 646.192 88.5834C653.762 84.143 662.442 81.9228 672.231 81.9228C682.02 81.9228 690.504 84.2083 697.683 88.7793C704.993 93.2197 710.67 99.4886 714.717 107.586C718.893 115.683 720.982 125.152 720.982 135.991V137.86C720.982 139.047 720.51 140.185 719.671 141.025L719.357 141.34C718.517 142.18 717.378 142.652 716.19 142.652H637.356C634.883 142.652 632.878 140.647 632.878 138.174V128.323C632.878 125.85 634.883 123.846 637.356 123.846H700.647C702.706 123.846 703.228 126.703 701.301 127.43C700.107 127.88 698.826 127.015 698.702 125.746C698.273 121.362 697.02 117.529 694.942 114.246C692.593 110.198 689.46 107.129 685.545 105.039C681.759 102.819 677.452 101.709 672.623 101.709C667.402 101.709 662.638 102.949 658.33 105.431C654.023 107.782 650.695 111.112 648.345 115.422C645.996 119.601 644.821 124.499 644.821 130.114V137.95C644.821 143.305 646.061 148.203 648.541 152.643C651.151 156.953 654.61 160.414 658.918 163.026C663.225 165.638 667.989 166.944 673.21 166.944C678.17 166.944 682.673 165.638 686.719 163.026C690.416 160.598 693.397 157.455 695.663 153.595C696.208 152.665 697.187 152.055 698.265 152.055C698.656 152.055 699.043 152.135 699.403 152.29L712.846 158.075C715.159 159.07 716.215 161.791 714.955 163.971C711.165 170.522 706.061 175.758 699.641 179.677C692.071 184.379 683.26 186.73 673.21 186.73Z" fill="black"></path>
<path d="M592.975 183.791C583.316 183.791 575.615 180.787 569.872 174.78C564.129 168.642 561.258 160.414 561.258 150.096V63.676C561.258 61.2031 563.262 59.1983 565.735 59.1983H579.295C581.768 59.1983 583.773 61.2031 583.773 63.676V147.745C583.773 152.969 585.078 156.888 587.689 159.5C590.43 162.112 594.345 163.418 599.436 163.418H607.845C608.924 163.418 609.903 164.048 610.349 165.03C610.512 165.388 610.596 165.775 610.596 166.168V179.313C610.596 181.786 608.591 183.791 606.118 183.791H592.975ZM548.898 105.039C546.425 105.039 544.42 103.034 544.42 100.561V89.339C544.42 86.8661 546.425 84.8613 548.898 84.8613H606.118C608.591 84.8613 610.596 86.8661 610.596 89.339V100.561C610.596 103.034 608.591 105.039 606.118 105.039H548.898Z" fill="black"></path>
<path d="M481.654 186.73C474.867 186.73 468.797 185.424 463.446 182.812C458.225 180.2 454.114 176.543 451.111 171.841C448.109 167.14 446.608 161.785 446.608 155.777C446.608 146.505 449.806 139.126 456.202 133.641C462.598 128.025 471.8 124.76 483.808 123.846L517.34 121.107C519.948 120.894 522.182 122.953 522.182 125.57V135.204C522.182 137.532 520.398 139.471 518.078 139.666L487.136 142.26C480.871 142.783 476.368 144.089 473.627 146.178C470.886 148.268 469.515 151.076 469.515 154.602C469.515 158.128 471.082 161.001 474.214 163.222C477.347 165.442 481.328 166.552 486.157 166.552C491.248 166.552 495.816 165.311 499.862 162.83C504.039 160.218 507.367 156.888 509.847 152.839C512.327 148.79 513.567 144.415 513.567 139.714V123.454C513.567 117.185 511.479 112.026 507.302 107.978C503.125 103.798 497.643 101.709 490.856 101.709C485.113 101.709 480.349 103.145 476.564 106.019C473.443 108.361 471.273 111.227 470.056 114.617C469.686 115.649 468.746 116.401 467.65 116.401C467.459 116.401 467.268 116.378 467.082 116.333L452.604 112.785C450.171 112.189 448.675 109.699 449.577 107.362C452.243 100.45 456.67 94.7131 462.859 90.1506C470.429 84.6654 479.827 81.9228 491.052 81.9228C505.018 81.9228 515.917 85.9714 523.748 94.0686C531.58 102.035 535.495 113.332 535.495 127.959V179.313C535.495 181.786 533.491 183.791 531.018 183.791H520.003C517.53 183.791 515.525 181.786 515.525 179.313V159.089C515.525 156.93 517.441 155.274 519.577 155.587C521.686 155.896 523.057 157.994 522.273 159.976C520.628 164.137 518.248 168.026 515.134 171.645C511.087 176.216 506.193 179.873 500.45 182.616C494.837 185.358 488.572 186.73 481.654 186.73Z" fill="black"></path>
<path d="M386.626 183.791C383.773 183.791 381.648 181.159 382.249 178.37L383.157 174.158C383.208 173.92 383.279 173.686 383.368 173.46L417.162 87.6975C417.837 85.9862 419.489 84.8613 421.328 84.8613H440.072C440.796 84.8613 441.383 85.4479 441.383 86.1714C441.383 86.3412 441.35 86.5094 441.285 86.6666L402.775 181.006C402.087 182.69 400.449 183.791 398.629 183.791H386.626ZM382.523 183.791C380.703 183.791 379.065 182.69 378.377 181.006L339.867 86.6666C339.803 86.5094 339.77 86.3412 339.77 86.1714C339.77 85.4479 340.356 84.8613 341.08 84.8613H359.818C361.66 84.8613 363.315 85.9899 363.987 87.7054L397.59 173.464C397.678 173.688 397.748 173.918 397.798 174.154L398.707 178.37C399.308 181.159 397.183 183.791 394.33 183.791H382.523Z" fill="black"></path>
<path d="M284.306 186.73C274.386 186.73 265.641 184.51 258.07 180.069C250.5 175.629 244.561 169.49 240.254 161.654C235.947 153.688 233.793 144.546 233.793 134.228C233.793 124.041 235.947 115.03 240.254 107.194C244.561 99.2274 250.5 93.0238 258.07 88.5834C265.641 84.143 274.386 81.9228 284.306 81.9228C294.356 81.9228 303.167 84.143 310.737 88.5834C318.307 93.0238 324.246 99.2274 328.553 107.194C332.861 115.03 335.014 124.041 335.014 134.228C335.014 144.546 332.861 153.688 328.553 161.654C324.246 169.49 318.307 175.629 310.737 180.069C303.167 184.51 294.356 186.73 284.306 186.73ZM284.306 166.356C290.049 166.356 295.009 165.05 299.186 162.438C303.362 159.826 306.625 156.104 308.975 151.272C311.324 146.439 312.499 140.824 312.499 134.424C312.499 127.764 311.324 122.082 308.975 117.381C306.625 112.549 303.362 108.827 299.186 106.214C295.009 103.602 290.049 102.296 284.306 102.296C278.693 102.296 273.799 103.602 269.622 106.214C265.445 108.827 262.182 112.549 259.833 117.381C257.483 122.082 256.308 127.698 256.308 134.228C256.308 140.758 257.483 146.439 259.833 151.272C262.182 156.104 265.445 159.826 269.622 162.438C273.799 165.05 278.693 166.356 284.306 166.356Z" fill="black"></path>
</svg>